<svg width="513" height="512" viewBox="0 0 513 512" fill="none" xmlns="http://www.w3.org/2000/svg">
<ellipse cx="256" cy="256" rx="256" ry="255" fill="#2E2F33"/>
<path d="M437.02 74.981C388.668 26.63 324.382 0 256.002 0C187.622 0.001 123.335 26.629 74.982 74.981C26.631 123.335 0.001 187.621 0 256.002C0 324.382 26.629 388.668 74.982 437.02C123.335 485.371 187.623 511.999 256.002 511.999C324.382 511.999 388.668 485.37 437.02 437.019C485.372 388.668 512.001 324.38 512.002 256.001C512.001 187.621 485.372 123.335 437.02 74.981ZM400.6 271.002H271.001L271 400.601C271 408.885 264.285 415.601 256 415.601C247.717 415.601 241 408.885 241 400.601L241.001 271.001H111.402C103.117 271.001 96.402 264.285 96.402 256.001C96.402 247.717 103.117 241.001 111.402 241.001H241.001L241.002 111.4C241.002 103.116 247.718 96.4 256.002 96.4C264.285 96.4 271.002 103.116 271.002 111.4L271.001 241.001H400.6C408.885 241.001 415.6 247.717 415.6 256.001C415.6 264.285 408.885 271.002 400.6 271.002Z" fill="#F1F1F3"/>
</svg>
